# Blender v2.76 (sub 0) OBJ File: 'ChineseMailbox.blend'
# www.blender.org
o Cube
v 1.472270 -1.000000 -1.472270
v 1.472270 -1.000000 1.472270
v -1.472270 -1.000000 1.472270
v -1.472269 -1.000000 -1.472270
v 1.000000 1.000000 -0.999999
v 0.999999 1.000000 1.000001
v -1.000000 1.000000 1.000000
v -1.000000 1.000000 -1.000000
v -1.038947 3.740888 0.668182
v -1.038947 2.798006 0.668182
v -0.042536 0.923138 -0.273251
v -0.042536 2.923138 -0.273251
v 0.012069 0.923138 -0.267873
v 0.012069 2.923138 -0.267873
v 0.064574 0.923138 -0.251946
v 0.064574 2.923138 -0.251946
v 0.112964 0.923138 -0.226081
v 0.112964 2.923138 -0.226081
v 0.155378 0.923138 -0.191273
v 0.155378 2.923138 -0.191273
v 0.190186 0.923138 -0.148859
v 0.190186 2.923138 -0.148859
v 0.216051 0.923138 -0.100470
v 0.216051 2.923138 -0.100470
v 0.231978 0.923138 -0.047964
v 0.231978 2.923138 -0.047964
v 0.237356 0.923138 0.006640
v 0.237356 2.923138 0.006640
v 0.231978 0.923138 0.061244
v 0.231978 2.923138 0.061244
v 0.216051 0.923138 0.113750
v 0.216051 2.923138 0.113750
v 0.190186 0.923138 0.162140
v 0.190186 2.923138 0.162140
v 0.155378 0.923138 0.204553
v 0.155378 2.923138 0.204553
v 0.112964 0.923138 0.239362
v 0.112964 2.923138 0.239362
v 0.064574 0.923138 0.265226
v 0.064574 2.923138 0.265226
v 0.012069 0.923138 0.281154
v 0.012069 2.923138 0.281154
v -0.042536 0.923138 0.286532
v -0.042536 2.923138 0.286532
v -0.097140 0.923138 0.281154
v -0.097140 2.923138 0.281154
v -0.149646 0.923138 0.265226
v -0.149646 2.923138 0.265226
v -0.198035 0.923138 0.239362
v -0.198035 2.923138 0.239362
v -0.240449 0.923138 0.204553
v -0.240449 2.923138 0.204553
v -0.275257 0.923138 0.162140
v -0.275257 2.923138 0.162140
v -0.301122 0.923138 0.113750
v -0.301122 2.923138 0.113750
v -0.317049 0.923138 0.061244
v -0.317049 2.923138 0.061244
v -0.322427 0.923138 0.006640
v -0.322427 2.923138 0.006640
v -0.317049 0.923138 -0.047964
v -0.317049 2.923138 -0.047964
v -0.301122 0.923138 -0.100470
v -0.301122 2.923138 -0.100470
v -0.275257 0.923138 -0.148860
v -0.275257 2.923138 -0.148860
v -0.240449 0.923138 -0.191273
v -0.240449 2.923138 -0.191273
v -0.198035 0.923138 -0.226081
v -0.198035 2.923138 -0.226081
v -0.149645 0.923138 -0.251946
v -0.149645 2.923138 -0.251946
v -0.097139 0.923138 -0.267873
v -0.097139 2.923138 -0.267873
v -1.038947 2.798006 -0.731390
v -1.038947 3.740888 -0.731390
v 1.061736 2.798006 0.668182
v 1.061736 3.740888 0.668182
v 1.061736 2.798006 -0.731390
v 1.061736 3.740888 -0.731390
v 0.011394 4.269665 -0.031604
v 1.061736 2.798006 -0.031604
v 1.061736 3.269447 0.668182
v 1.061736 3.740888 -0.031604
v 1.061736 3.269447 -0.731390
v 1.061736 3.269447 -0.031604
v 1.061736 2.798006 -0.381497
v 1.061736 3.033726 0.668182
v 1.061736 3.740888 0.318289
v 1.061736 3.033726 -0.731390
v 1.061736 2.798006 0.318289
v 1.061736 3.505167 0.668182
v 1.061736 3.740888 -0.381497
v 1.061736 3.505167 -0.731390
v 1.061736 3.033726 -0.031604
v 1.061736 3.505167 -0.031604
v 1.061736 3.269447 -0.381497
v 1.061736 3.269447 0.318289
v 1.061736 3.505167 0.318289
v 1.061736 3.505167 -0.381497
v 1.061736 3.033726 -0.381497
v 1.061736 3.033726 0.318289
v 1.061736 3.269447 0.143342
v 1.061736 3.269447 -0.206550
v 1.061736 3.387307 0.318289
v 1.061736 3.505167 0.143342
v 1.061736 3.387307 -0.381497
v 1.061736 3.505167 -0.206550
v 1.061736 3.328377 -0.031604
v 1.061736 3.269447 0.055869
v 1.061736 3.269447 -0.294024
v 1.061736 3.328377 0.318289
v 1.061736 3.505167 0.055869
v 1.061736 3.328377 -0.381497
v 1.061736 3.505167 -0.294024
v 1.061736 3.446237 -0.031604
v 1.061736 3.269447 0.230816
v 1.061736 3.269447 -0.119077
v 1.061736 3.446237 0.318289
v 1.061736 3.505167 0.230816
v 1.061736 3.446237 -0.381497
v 1.061736 3.505167 -0.119077
v 1.061736 3.328377 0.143342
v 1.061736 3.446237 0.143342
v 1.061736 3.387307 0.230816
v 1.061736 3.328377 -0.206550
v 1.061736 3.446237 -0.206550
v 1.061736 3.446237 -0.119077
v 1.061736 3.446237 -0.294024
v 1.061736 3.328377 -0.294024
v 1.061736 3.446237 0.230816
v 1.061736 3.446237 0.055869
v 1.061736 3.328377 0.055869
v 1.061736 3.328377 0.230816
v 1.061736 3.328377 -0.119077
v 0.864825 3.446237 -0.031604
v 0.864825 3.446237 -0.381497
v 0.864825 3.387307 -0.381497
v 0.864825 3.446237 0.143342
v 0.864825 3.387307 0.230816
v 0.864825 3.446237 -0.206550
v 0.864825 3.328377 -0.031604
v 0.864825 3.328377 -0.381497
v 0.864825 3.328377 0.143342
v 0.864825 3.328377 -0.206550
v 0.864825 3.446237 -0.119077
v 0.864825 3.446237 -0.294024
v 0.864825 3.328377 -0.294024
v 0.864825 3.446237 0.230816
v 0.864825 3.446237 0.055869
v 0.864825 3.328377 0.055869
v 0.864825 3.328377 0.230816
v 0.864825 3.328377 -0.119077
v -1.038947 2.798006 0.017469
v -1.038947 3.740888 0.017469
vt 0.372774 0.368814
vt 0.000000 0.368814
vt 0.000000 0.000000
vt 0.880667 0.250507
vt 0.627470 0.250507
vt 0.627470 0.000000
vt 0.509227 0.678475
vt 0.509227 0.427968
vt 0.762774 0.368814
vt 0.000000 0.678475
vt 0.000000 0.427968
vt 0.254549 0.368814
vt 0.627470 0.368814
vt 0.372774 0.309661
vt 0.372774 0.059154
vt 0.509227 0.368814
vt 0.509227 0.737096
vt 0.254549 0.675204
vt 0.195013 0.988049
vt 0.188074 0.988057
vt 0.188074 0.737636
vt 0.181328 0.988100
vt 0.181328 0.737679
vt 0.175035 0.988176
vt 0.175035 0.737755
vt 0.169436 0.988283
vt 0.169436 0.737862
vt 0.169436 0.988192
vt 0.164067 0.988166
vt 0.164067 0.737663
vt 0.157941 0.988147
vt 0.157940 0.737644
vt 0.151293 0.988135
vt 0.151293 0.737632
vt 0.144381 0.988131
vt 0.144381 0.737628
vt 0.137468 0.988135
vt 0.137468 0.737632
vt 0.130821 0.988147
vt 0.130821 0.737644
vt 0.124695 0.988166
vt 0.124695 0.737663
vt 0.119325 0.988192
vt 0.119325 0.737689
vt 0.990069 0.870186
vt 0.984699 0.870082
vt 0.984699 0.619646
vt 0.978573 0.870005
vt 0.978573 0.619569
vt 0.971926 0.869958
vt 0.971926 0.619522
vt 0.965013 0.869942
vt 0.965013 0.619506
vt 0.958101 0.869958
vt 0.958101 0.619522
vt 0.951453 0.870005
vt 0.951453 0.619569
vt 0.945327 0.870082
vt 0.945327 0.619646
vt 0.939958 0.870186
vt 0.939958 0.619750
vt 0.990069 0.619506
vt 0.984699 0.619390
vt 0.984699 0.368971
vt 0.978573 0.619304
vt 0.978573 0.368885
vt 0.971926 0.619251
vt 0.971926 0.368832
vt 0.965013 0.619233
vt 0.965013 0.368814
vt 0.958101 0.619251
vt 0.958100 0.368832
vt 0.845154 0.368814
vt 0.807070 0.631932
vt 0.951453 0.619304
vt 0.951453 0.368885
vt 1.000000 0.000000
vt 0.970167 0.263118
vt 0.940333 0.263118
vt 0.945327 0.619390
vt 0.945327 0.368971
vt 0.463400 0.737096
vt 0.493241 0.737096
vt 0.493241 0.780921
vt 0.939958 0.619506
vt 0.939958 0.369087
vt 0.284381 0.737220
vt 0.314213 0.737179
vt 0.254549 1.000000
vt 0.219475 0.988353
vt 0.214350 0.988231
vt 0.214350 0.737810
vt 0.000000 0.737628
vt 0.119325 0.737628
vt 0.119325 0.831425
vt 0.208408 0.988138
vt 0.208408 0.737717
vt 0.690124 0.263156
vt 0.685212 0.312495
vt 0.635343 0.307636
vt 0.201879 0.988077
vt 0.195013 0.737628
vt 0.201879 0.737655
vt 0.736733 0.250507
vt 0.768523 0.288832
vt 0.697996 0.281960
vt 0.762774 0.895050
vt 0.762774 0.631932
vt 0.851366 0.763491
vt 0.939958 0.631932
vt 0.939958 0.895050
vt 0.857579 0.631932
vt 0.807070 0.895050
vt 0.463400 0.824746
vt 0.493241 0.824746
vt 0.493241 0.868571
vt 0.426098 0.824746
vt 0.433558 0.824746
vt 0.433558 0.835703
vt 0.433558 0.737096
vt 0.426098 0.780921
vt 0.418638 0.780921
vt 0.433558 0.780921
vt 0.433558 0.791877
vt 0.373876 0.780921
vt 0.403717 0.802834
vt 0.373876 0.824746
vt 0.373876 0.737096
vt 0.403717 0.737096
vt 0.403717 0.780921
vt 0.426098 0.868572
vt 0.433558 0.868572
vt 0.433558 0.912397
vt 0.373876 0.868572
vt 0.403717 0.868572
vt 0.403717 0.912397
vt 0.403717 0.846659
vt 0.463400 0.868572
vt 0.493241 0.912397
vt 0.463400 0.912397
vt 0.433558 0.846659
vt 0.463400 0.780921
vt 0.433558 0.802834
vt 0.426098 0.802834
vt 0.433558 0.813790
vt 0.793451 0.261463
vt 0.768523 0.261463
vt 0.768523 0.250507
vt 0.411177 0.780921
vt 0.418638 0.791877
vt 0.426098 0.846659
vt 0.433558 0.857615
vt 0.793451 0.316245
vt 0.768523 0.316245
vt 0.768523 0.305289
vt 0.818380 0.305289
vt 0.793451 0.305289
vt 0.793451 0.294332
vt 0.818380 0.294332
vt 0.793451 0.283376
vt 0.403717 0.835703
vt 0.411177 0.835703
vt 0.411177 0.846659
vt 0.403717 0.824746
vt 0.411177 0.824746
vt 0.657303 0.320284
vt 0.657303 0.344912
vt 0.649845 0.344923
vt 0.403717 0.857615
vt 0.411177 0.857615
vt 0.411177 0.868572
vt 0.426098 0.857615
vt 0.793451 0.327201
vt 0.768523 0.327201
vt 0.818380 0.283376
vt 0.793451 0.272420
vt 0.768523 0.294332
vt 0.768523 0.283376
vt 0.403717 0.791877
vt 0.411177 0.791877
vt 0.411177 0.802834
vt 0.768523 0.272420
vt 0.403717 0.813790
vt 0.411177 0.813790
vt 0.426098 0.813790
vt 0.426098 0.791877
vt 0.818380 0.272420
vt 0.426098 0.835703
vt 0.818380 0.327201
vt 0.818380 0.261463
vt 0.793451 0.250507
vt 0.818380 0.316245
vt 0.649845 0.320295
vt 0.642387 0.344933
vt 0.642387 0.320284
vt 0.634928 0.344948
vt 0.634928 0.320284
vt 0.627470 0.344948
vt 0.000000 0.831425
vt 0.119325 0.912929
vt 0.372774 0.000000
vt 0.880667 0.000000
vt 0.762774 0.737628
vt 0.254549 0.737628
vt 0.254549 0.425058
vt 0.169436 0.737689
vt 0.990069 0.619750
vt 0.990069 0.369087
vt 0.939958 0.368814
vt 0.895662 0.631932
vt 0.851366 0.631932
vt 0.910500 0.263118
vt 0.880667 0.263118
vt 1.000000 0.263118
vt 0.373876 0.999834
vt 0.254549 0.737262
vt 0.344044 0.737137
vt 0.219475 0.737932
vt 0.631483 0.301922
vt 0.627470 0.281960
vt 0.628825 0.295572
vt 0.627470 0.288832
vt 0.628825 0.275219
vt 0.631483 0.268870
vt 0.635343 0.263156
vt 0.640254 0.258296
vt 0.646030 0.254478
vt 0.652447 0.251848
vt 0.659260 0.250507
vt 0.666206 0.250507
vt 0.673019 0.251848
vt 0.679437 0.254478
vt 0.685212 0.258296
vt 0.693983 0.268870
vt 0.696641 0.275219
vt 0.697996 0.288832
vt 0.696641 0.295572
vt 0.693983 0.301922
vt 0.690124 0.307636
vt 0.679437 0.316314
vt 0.673019 0.318944
vt 0.666206 0.320284
vt 0.659260 0.320284
vt 0.652447 0.318944
vt 0.646030 0.316314
vt 0.640254 0.312495
vt 0.729787 0.320284
vt 0.722974 0.318944
vt 0.716556 0.316314
vt 0.710781 0.312495
vt 0.705869 0.307636
vt 0.702010 0.301922
vt 0.699352 0.295572
vt 0.699352 0.275219
vt 0.710781 0.258296
vt 0.702010 0.268870
vt 0.705869 0.263156
vt 0.716556 0.254478
vt 0.722974 0.251848
vt 0.729787 0.250507
vt 0.743546 0.251848
vt 0.749963 0.254478
vt 0.755739 0.258296
vt 0.760650 0.263156
vt 0.764509 0.268870
vt 0.767168 0.275219
vt 0.768523 0.281960
vt 0.767168 0.295572
vt 0.755739 0.312496
vt 0.764509 0.301922
vt 0.760650 0.307636
vt 0.749963 0.316314
vt 0.743545 0.318944
vt 0.736733 0.320284
vt 0.895662 0.895050
vt 0.851366 0.895050
vt 0.418638 0.868572
vt 0.373876 0.912397
vt 0.818380 0.250507
vt 0.627470 0.320284
vt 0.000000 0.912929
vn 0.000000 -1.000000 0.000000
vn 0.000000 1.000000 0.000000
vn 0.973200 0.229800 0.000000
vn -0.000000 0.229800 0.973200
vn -0.973200 0.229800 -0.000000
vn 0.000000 0.229800 -0.973200
vn 0.098000 0.000000 -0.995200
vn 0.290300 0.000000 -0.956900
vn 0.471400 0.000000 -0.881900
vn 0.634400 0.000000 -0.773000
vn 0.773000 0.000000 -0.634400
vn 0.881900 0.000000 -0.471400
vn 0.956900 0.000000 -0.290300
vn 0.995200 0.000000 -0.098000
vn 0.995200 0.000000 0.098000
vn 0.956900 0.000000 0.290300
vn 0.881900 0.000000 0.471400
vn 0.773000 0.000000 0.634400
vn 0.634400 0.000000 0.773000
vn 0.471400 0.000000 0.881900
vn 0.290300 0.000000 0.956900
vn 0.098000 0.000000 0.995200
vn -0.098000 0.000000 0.995200
vn -0.290300 0.000000 0.956900
vn -0.471400 0.000000 0.881900
vn -0.634400 0.000000 0.773000
vn -0.773000 0.000000 0.634400
vn -0.881900 0.000000 0.471400
vn -0.956900 0.000000 0.290300
vn -0.995200 0.000000 0.098000
vn -0.995200 0.000000 -0.098000
vn -0.956900 0.000000 -0.290300
vn 0.000000 0.000000 1.000000
vn -0.881900 0.000000 -0.471400
vn 1.000000 0.000000 0.000000
vn -0.773000 0.000000 -0.634400
vn 0.000000 0.000000 -1.000000
vn -0.634400 0.000000 -0.773000
vn -1.000000 0.000000 0.000000
vn -0.471400 0.000000 -0.881900
vn -0.098000 0.000000 -0.995200
vn -0.290300 0.000000 -0.956900
vn 0.000000 0.797800 -0.602900
vn 0.000000 0.797800 0.602900
vn -0.449700 0.893200 0.000000
vn 0.449700 0.893200 0.000000
vn 0.000000 1.000000 -0.000100
vn 0.000000 1.000000 0.000100
s off
f 2/1/1 3/2/1 4/3/1
f 8/4/2 7/5/2 6/6/2
f 5/7/3 6/8/3 2/9/3
f 6/10/4 7/11/4 3/12/4
f 3/13/5 7/14/5 8/15/5
f 1/16/6 4/17/6 8/18/6
f 12/19/7 14/20/7 13/21/7
f 14/20/8 16/22/8 15/23/8
f 16/22/9 18/24/9 17/25/9
f 18/24/10 20/26/10 19/27/10
f 20/28/11 22/29/11 21/30/11
f 22/29/12 24/31/12 23/32/12
f 24/31/13 26/33/13 25/34/13
f 26/33/14 28/35/14 27/36/14
f 28/35/15 30/37/15 29/38/15
f 30/37/16 32/39/16 31/40/16
f 32/39/17 34/41/17 33/42/17
f 34/41/18 36/43/18 35/44/18
f 36/45/19 38/46/19 37/47/19
f 38/46/20 40/48/20 39/49/20
f 40/48/21 42/50/21 41/51/21
f 42/50/22 44/52/22 43/53/22
f 44/52/23 46/54/23 45/55/23
f 46/54/24 48/56/24 47/57/24
f 48/56/25 50/58/25 49/59/25
f 50/58/26 52/60/26 51/61/26
f 52/62/27 54/63/27 53/64/27
f 54/63/28 56/65/28 55/66/28
f 56/65/29 58/67/29 57/68/29
f 58/67/30 60/69/30 59/70/30
f 60/69/31 62/71/31 61/72/31
f 154/73/1 91/74/1 10/9/1
f 62/71/32 64/75/32 63/76/32
f 10/77/33 88/78/33 83/79/33
f 64/75/34 66/80/34 65/81/34
f 88/82/35 77/83/35 91/84/35
f 66/80/36 68/85/36 67/86/36
f 94/87/37 85/88/37 76/89/37
f 68/90/38 70/91/38 69/92/38
f 76/93/39 75/94/39 154/95/39
f 70/91/40 72/96/40 71/97/40
f 48/98/2 32/99/2 16/100/2
f 74/101/41 12/19/41 11/102/41
f 72/96/42 74/101/42 73/103/42
f 41/104/1 57/105/1 25/106/1
f 80/107/43 76/108/43 81/109/43
f 9/110/44 78/111/44 81/109/44
f 155/112/45 9/110/45 81/109/45
f 93/113/46 80/107/46 81/109/46
f 95/114/35 82/115/35 87/116/35
f 109/117/35 86/118/35 118/119/35
f 83/120/35 112/121/35 105/122/35
f 112/121/35 98/123/35 117/124/35
f 89/125/35 106/126/35 84/127/35
f 78/128/35 92/129/35 99/130/35
f 114/131/35 97/132/35 85/133/35
f 93/134/35 100/135/35 94/136/35
f 84/127/35 108/137/35 93/134/35
f 101/138/35 87/116/35 79/139/35
f 97/132/35 101/138/35 90/140/35
f 104/141/35 118/119/35 95/114/35
f 102/142/35 91/84/35 82/115/35
f 103/143/35 117/124/35 102/142/35
f 83/120/35 88/82/35 102/142/35
f 123/144/35 103/143/35 110/145/35
f 123/146/2 144/147/2 152/148/2
f 119/149/35 105/122/35 125/150/35
f 126/151/35 104/141/35 111/152/35
f 130/153/2 148/154/2 145/155/2
f 132/156/1 150/157/1 136/158/1
f 116/159/1 136/158/1 146/160/1
f 122/161/35 128/162/35 127/163/35
f 96/164/35 116/165/35 128/162/35
f 134/166/37 152/167/37 140/168/37
f 115/169/35 129/170/35 121/171/35
f 108/137/35 127/163/35 129/170/35
f 130/172/35 111/152/35 97/132/35
f 114/173/2 143/174/2 148/154/2
f 128/175/1 146/160/1 141/176/1
f 135/158/2 153/177/2 142/178/2
f 120/179/35 131/180/35 124/181/35
f 99/130/35 119/149/35 131/180/35
f 133/176/2 151/182/2 144/147/2
f 113/183/35 132/184/35 116/165/35
f 106/126/35 124/181/35 132/184/35
f 133/185/35 110/145/35 86/118/35
f 126/157/2 145/155/2 153/177/2
f 109/160/2 142/178/2 151/182/2
f 134/186/35 117/124/35 103/143/35
f 127/187/1 141/176/1 147/146/1
f 105/122/35 112/121/35 134/186/35
f 135/188/35 118/119/35 104/141/35
f 131/189/1 149/173/1 139/153/1
f 129/190/1 147/146/1 137/191/1
f 124/192/1 139/153/1 150/157/1
f 125/193/37 140/168/37 149/194/37
f 121/195/33 137/194/33 138/196/33
f 107/197/33 138/196/33 143/198/33
f 155/199/39 154/95/39 10/200/39
f 1/201/1 2/1/1 4/3/1
f 5/202/2 8/4/2 6/6/2
f 1/203/3 5/7/3 2/9/3
f 2/204/4 6/10/4 3/12/4
f 4/6/5 3/13/5 8/15/5
f 5/205/6 1/16/6 8/18/6
f 11/102/7 12/19/7 13/21/7
f 13/21/8 14/20/8 15/23/8
f 15/23/9 16/22/9 17/25/9
f 17/25/10 18/24/10 19/27/10
f 19/206/11 20/28/11 21/30/11
f 21/30/12 22/29/12 23/32/12
f 23/32/13 24/31/13 25/34/13
f 25/34/14 26/33/14 27/36/14
f 27/36/15 28/35/15 29/38/15
f 29/38/16 30/37/16 31/40/16
f 31/40/17 32/39/17 33/42/17
f 33/42/18 34/41/18 35/44/18
f 35/207/19 36/45/19 37/47/19
f 37/47/20 38/46/20 39/49/20
f 39/49/21 40/48/21 41/51/21
f 41/51/22 42/50/22 43/53/22
f 43/53/23 44/52/23 45/55/23
f 45/55/24 46/54/24 47/57/24
f 47/57/25 48/56/25 49/59/25
f 49/59/26 50/58/26 51/61/26
f 51/208/27 52/62/27 53/64/27
f 53/64/28 54/63/28 55/66/28
f 55/66/29 56/65/29 57/68/29
f 57/68/30 58/67/30 59/70/30
f 59/70/31 60/69/31 61/72/31
f 77/108/1 10/9/1 91/74/1
f 154/73/1 75/209/1 87/210/1
f 79/110/1 87/210/1 75/209/1
f 82/211/1 91/74/1 154/73/1
f 154/73/1 87/210/1 82/211/1
f 61/72/32 62/71/32 63/76/32
f 92/212/33 78/213/33 9/202/33
f 9/202/33 10/77/33 83/79/33
f 77/214/33 88/78/33 10/77/33
f 83/79/33 92/212/33 9/202/33
f 63/76/34 64/75/34 65/81/34
f 102/142/35 88/82/35 91/84/35
f 65/81/36 66/80/36 67/86/36
f 75/215/37 76/89/37 85/88/37
f 80/216/37 94/87/37 76/89/37
f 85/88/37 90/217/37 75/215/37
f 79/128/37 75/215/37 90/217/37
f 67/218/38 68/90/38 69/92/38
f 155/199/39 76/93/39 154/95/39
f 69/92/40 70/91/40 71/97/40
f 16/100/2 14/219/2 72/220/2
f 12/221/47 74/222/47 72/220/47
f 72/220/2 70/223/2 68/224/2
f 68/224/2 66/225/2 64/226/2
f 64/226/2 62/227/2 60/228/2
f 60/228/2 58/229/2 56/230/2
f 56/230/2 54/231/2 52/232/2
f 52/232/2 50/233/2 48/98/2
f 48/98/48 46/234/48 44/235/48
f 44/235/2 42/106/2 40/236/2
f 40/236/2 38/237/2 32/99/2
f 36/238/2 34/239/2 32/99/2
f 32/99/2 30/240/2 28/241/2
f 28/241/2 26/242/2 32/99/2
f 24/243/2 22/244/2 16/100/2
f 20/245/2 18/246/2 16/100/2
f 14/219/2 12/221/2 72/220/2
f 72/220/2 68/224/2 64/226/2
f 64/226/2 60/228/2 48/98/2
f 56/230/2 52/232/2 48/98/2
f 48/98/2 44/235/2 40/236/2
f 38/237/2 36/238/2 32/99/2
f 32/99/2 26/242/2 24/243/2
f 22/244/2 20/245/2 16/100/2
f 16/100/2 72/220/2 64/226/2
f 60/228/2 56/230/2 48/98/2
f 48/98/2 40/236/2 32/99/2
f 32/99/2 24/243/2 16/100/2
f 16/100/2 64/226/2 48/98/2
f 73/103/41 74/101/41 11/102/41
f 71/97/42 72/96/42 73/103/42
f 73/247/1 11/248/1 13/249/1
f 13/249/1 15/250/1 17/251/1
f 17/251/1 19/252/1 21/253/1
f 21/253/1 23/236/1 17/251/1
f 25/106/1 27/254/1 33/255/1
f 29/256/1 31/257/1 33/255/1
f 33/255/1 35/258/1 37/259/1
f 37/259/1 39/260/1 41/104/1
f 41/104/1 43/261/1 45/262/1
f 45/262/1 47/263/1 41/104/1
f 49/264/1 51/265/1 53/266/1
f 53/266/1 55/267/1 49/264/1
f 57/105/1 59/268/1 65/269/1
f 61/270/1 63/271/1 65/269/1
f 65/269/1 67/272/1 73/247/1
f 69/273/1 71/274/1 73/247/1
f 73/247/1 13/249/1 25/106/1
f 17/251/1 23/236/1 25/106/1
f 27/254/1 29/256/1 33/255/1
f 33/255/1 37/259/1 25/106/1
f 41/104/1 47/263/1 49/264/1
f 49/264/1 55/267/1 57/105/1
f 59/268/1 61/270/1 65/269/1
f 67/272/1 69/273/1 73/247/1
f 13/249/1 17/251/1 25/106/1
f 25/106/1 37/259/1 41/104/1
f 41/104/1 49/264/1 57/105/1
f 57/105/1 65/269/1 73/247/1
f 73/247/1 25/106/1 57/105/1
f 76/108/45 155/112/45 81/109/45
f 81/109/46 78/111/46 89/275/46
f 84/276/46 93/113/46 81/109/46
f 81/109/46 89/275/46 84/276/46
f 101/138/35 95/114/35 87/116/35
f 135/188/35 109/117/35 118/119/35
f 119/149/35 99/130/35 92/129/35
f 92/129/35 83/120/35 105/122/35
f 98/123/35 112/121/35 83/120/35
f 105/122/35 119/149/35 92/129/35
f 134/186/35 112/121/35 117/124/35
f 96/164/35 84/127/35 113/183/35
f 89/125/35 99/130/35 120/179/35
f 120/179/35 106/126/35 89/125/35
f 113/183/35 84/127/35 106/126/35
f 89/125/35 78/128/35 99/130/35
f 85/133/35 94/136/35 107/277/35
f 100/135/35 121/171/35 94/136/35
f 107/277/35 114/131/35 85/133/35
f 94/136/35 121/171/35 107/277/35
f 80/278/35 93/134/35 94/136/35
f 100/135/35 93/134/35 115/169/35
f 84/127/35 96/164/35 122/161/35
f 122/161/35 108/137/35 84/127/35
f 115/169/35 93/134/35 108/137/35
f 90/140/35 101/138/35 79/139/35
f 85/133/35 97/132/35 90/140/35
f 101/138/35 97/132/35 111/152/35
f 111/152/35 104/141/35 101/138/35
f 118/119/35 86/118/35 95/114/35
f 95/114/35 101/138/35 104/141/35
f 95/114/35 102/142/35 82/115/35
f 95/114/35 86/118/35 110/145/35
f 110/145/35 103/143/35 95/114/35
f 117/124/35 98/123/35 102/142/35
f 102/142/35 95/114/35 103/143/35
f 98/123/35 83/120/35 102/142/35
f 133/185/35 123/144/35 110/145/35
f 134/191/2 123/146/2 152/148/2
f 131/180/35 119/149/35 125/150/35
f 130/172/35 126/151/35 111/152/35
f 126/157/2 130/153/2 145/155/2
f 116/159/1 132/156/1 136/158/1
f 128/175/1 116/159/1 146/160/1
f 108/137/35 122/161/35 127/163/35
f 122/161/35 96/164/35 128/162/35
f 125/193/37 134/166/37 140/168/37
f 100/135/35 115/169/35 121/171/35
f 115/169/35 108/137/35 129/170/35
f 114/131/35 130/172/35 97/132/35
f 130/153/2 114/173/2 148/154/2
f 127/187/1 128/175/1 141/176/1
f 109/160/2 135/158/2 142/178/2
f 106/126/35 120/179/35 124/181/35
f 120/179/35 99/130/35 131/180/35
f 123/146/2 133/176/2 144/147/2
f 96/164/35 113/183/35 116/165/35
f 113/183/35 106/126/35 132/184/35
f 109/117/35 133/185/35 86/118/35
f 135/158/2 126/157/2 153/177/2
f 133/176/2 109/160/2 151/182/2
f 123/144/35 134/186/35 103/143/35
f 129/190/1 127/187/1 147/146/1
f 125/150/35 105/122/35 134/186/35
f 126/151/35 135/188/35 104/141/35
f 124/192/1 131/189/1 139/153/1
f 121/279/1 129/190/1 137/191/1
f 132/156/1 124/192/1 150/157/1
f 131/195/37 125/193/37 149/194/37
f 107/197/33 121/195/33 138/196/33
f 114/280/33 107/197/33 143/198/33
f 9/281/39 155/199/39 10/200/39
